<svg width="16" height="17" viewBox="0 0 16 17" fill="none" xmlns="http://www.w3.org/2000/svg">
<path fill-rule="evenodd" clip-rule="evenodd" d="M4.625 0.28125C5.09099 0.28125 5.46875 0.65901 5.46875 1.125V2.25H10.5312V1.125C10.5312 0.65901 10.909 0.28125 11.375 0.28125C11.841 0.28125 12.2188 0.65901 12.2188 1.125V2.25H12.5C14.364 2.25 15.875 3.76104 15.875 5.625V6.75V13.5C15.875 15.364 14.364 16.875 12.5 16.875H3.5C1.63604 16.875 0.125 15.364 0.125 13.5V6.75V5.625C0.125 3.76104 1.63604 2.25 3.5 2.25H3.78125V1.125C3.78125 0.65901 4.15901 0.28125 4.625 0.28125ZM1.8125 6.75V13.5C1.8125 14.432 2.56802 15.1875 3.5 15.1875H12.5C13.432 15.1875 14.1875 14.432 14.1875 13.5V6.75H1.8125ZM3.5 9.28125C3.5 8.81526 3.87776 8.4375 4.34375 8.4375H11.6562C12.1222 8.4375 12.5 8.81526 12.5 9.28125C12.5 9.74724 12.1222 10.125 11.6562 10.125H4.34375C3.87776 10.125 3.5 9.74724 3.5 9.28125ZM3.5 12.6562C3.5 12.1903 3.87776 11.8125 4.34375 11.8125H11.6562C12.1222 11.8125 12.5 12.1903 12.5 12.6562C12.5 13.1222 12.1222 13.5 11.6562 13.5H4.34375C3.87776 13.5 3.5 13.1222 3.5 12.6562Z" fill="#4A4F56"/>
</svg>
