<svg width="17" height="20" viewBox="0 0 17 20" fill="none" xmlns="http://www.w3.org/2000/svg">
<path opacity="0.5" d="M15.0633 5.27806C15.2974 3.78418 15.062 2.76782 14.2538 1.84746C13.3644 0.834192 11.7578 0.400024 9.70215 0.400024H3.73466C3.31474 0.400024 2.95675 0.705986 2.8911 1.12095L0.406247 16.8773C0.357318 17.1889 0.597627 17.4694 0.91226 17.4694H4.59618L4.34163 19.0822C4.29889 19.3541 4.50947 19.6 4.78509 19.6H7.89053C8.25781 19.6 8.57058 19.3325 8.62818 18.9695L8.65853 18.8116L9.2432 15.1023L9.28098 14.8973C9.33858 14.5343 9.65136 14.2661 10.0186 14.2661H10.4832C13.4914 14.2661 15.8468 13.0448 16.5349 9.50949C16.8229 8.03295 16.6742 6.79982 15.9137 5.93334C15.6833 5.67197 15.3971 5.4552 15.0633 5.27806Z" fill="white"/>
<path d="M15.0633 5.27807C15.2974 3.78418 15.062 2.76782 14.2538 1.84746C13.3644 0.834192 11.7578 0.400024 9.70214 0.400024H3.73466C3.31474 0.400024 2.95675 0.705986 2.8911 1.12095L0.406247 16.8774C0.357318 17.1889 0.597627 17.4695 0.91226 17.4695H4.59618L5.5215 11.6011L5.49301 11.7856C5.55866 11.37 5.91293 11.0647 6.33347 11.0647H8.08439C11.523 11.0647 14.2154 9.66744 15.0026 5.62738C15.0255 5.50785 15.0453 5.39265 15.0633 5.27807Z" fill="white"/>
<path d="M6.51618 5.29789C6.5552 5.04829 6.71562 4.8439 6.93115 4.74047C7.02901 4.6934 7.13864 4.66738 7.25384 4.66738H11.9318C12.4861 4.66738 13.0027 4.70393 13.4753 4.78011C13.6103 4.80178 13.7416 4.82656 13.8692 4.85505C13.9968 4.88292 14.1206 4.91451 14.2408 4.94981C14.3009 4.96715 14.3597 4.98573 14.4179 5.00493C14.6502 5.08235 14.8663 5.17278 15.0645 5.27807C15.2986 3.78418 15.0633 2.76782 14.255 1.84746C13.3644 0.834192 11.7578 0.400024 9.70215 0.400024H3.73466C3.31474 0.400024 2.95675 0.705986 2.8911 1.12095L0.406247 16.8774C0.357318 17.1889 0.597627 17.4695 0.91226 17.4695H4.59618L5.5215 11.6011L6.51618 5.29789Z" fill="white"/>
</svg>
